<?xml version="1.0" encoding="UTF-8" standalone="no"?>
<!-- Created with Inkscape (http://www.inkscape.org/) -->

<svg
   width="64"
   height="64"
   id="svg17728"
   version="1.1"
   xmlns="http://www.w3.org/2000/svg"
   xmlns:svg="http://www.w3.org/2000/svg"
   xmlns:rdf="http://www.w3.org/1999/02/22-rdf-syntax-ns#"
   xmlns:cc="http://creativecommons.org/ns#"
   xmlns:dc="http://purl.org/dc/elements/1.1/">
  <defs
     id="defs17730" />
  <metadata
     id="metadata17733">
    <rdf:RDF>
      <cc:Work
         rdf:about="">
        <dc:format>image/svg+xml</dc:format>
        <dc:type
           rdf:resource="http://purl.org/dc/dcmitype/StillImage" />
        <dc:title />
      </cc:Work>
    </rdf:RDF>
  </metadata>
  <g
     id="layer1">
    <path
       style="fill:#ffffff;fill-opacity:1"
       d="m 25.535585,59.100636 c -0.683423,-0.07731 -1.904422,-0.188958 -2.713331,-0.248092 -1.392007,-0.101747 -1.547217,-0.135957 -2.899367,-0.63911 -3.805829,-1.416185 -5.79845,-2.398753 -8.623224,-4.252129 C 7.3133286,51.345807 6.7967312,50.906327 5.9595389,49.418354 5.5557107,48.700612 4.8133434,46.774958 4.4188478,45.421871 3.7852314,43.248647 3.2797401,38.951974 3.2788971,35.73237 3.2780703,33.129859 3.3686896,32.524951 4.1169785,30.128194 6.4020947,22.809062 11.105475,16.231009 16.88925,12.265148 c 0.484092,-0.331938 1.22091,-0.902652 1.637373,-1.268257 0.903507,-0.793171 2.474498,-1.7542745 4.316689,-2.6408765 4.06215,-1.9550069 7.95826,-2.7651457 13.306036,-2.7667925 6.652706,-0.00205 10.64648,1.1863619 15.52717,4.620355 2.342509,1.648161 4.417872,3.529141 5.221699,4.732617 0.46121,0.690522 1.660061,3.355446 2.338188,5.197544 0.472013,1.282211 0.805137,2.673604 1.000101,4.177229 0.146629,1.130941 0.154526,1.528543 0.05297,2.667061 -0.299851,3.361727 -1.392289,6.891273 -3.376688,10.909696 -1.723777,3.49067 -4.032382,7.049222 -6.193012,9.546123 -1.045131,1.207789 -6.399364,5.4318 -9.753266,7.694457 -3.667188,2.474004 -5.164122,3.134239 -8.544939,3.768806 -1.748439,0.328176 -4.925762,0.419318 -6.886003,0.197534 v 0 z m 7.662618,-2.707692 c 2.323432,-0.604529 3.290491,-1.025244 5.732543,-2.493914 3.318847,-1.995982 5.535949,-3.720536 8.195542,-6.374848 2.388279,-2.38353 4.090664,-4.528536 5.805328,-7.314721 2.106838,-3.423445 4.168628,-8.228614 4.764195,-11.103361 0.506314,-2.443915 0.398263,-5.542214 -0.276151,-7.918527 -0.807492,-2.845197 -1.994736,-4.875817 -4.014882,-6.866879 -1.542028,-1.519835 -2.853831,-2.4126 -5.295532,-3.603951 C 43.924185,8.6747745 40.16838,7.8845075 35.335085,8.0289095 c -4.285342,0.128041 -8.078612,0.891244 -11.283762,2.2703165 -1.753025,0.754269 -2.932679,1.495442 -5.97126,3.751718 -2.115968,1.571195 -2.415298,1.833321 -4.063018,3.558026 -3.910986,4.0937 -6.5763625,8.612866 -8.0475453,13.644653 -0.961479,3.288495 -1.0013636,4.61152 -0.3072089,10.190898 0.2295851,1.845315 0.6123023,3.654246 1.0527796,4.975991 0.2103933,0.631312 0.3836941,1.194163 0.3851213,1.25077 0.00577,0.227406 1.8357475,2.521799 2.3513728,2.948054 0.6329905,0.523282 1.8036275,1.296226 2.4742965,1.633716 0.252457,0.127032 0.994877,0.557149 1.649824,0.955801 1.405358,0.855406 4.153344,2.18863 5.44983,2.644061 0.9833,0.345414 2.039872,0.626024 3.438962,0.913338 0.247259,0.05077 0.545774,0.06733 0.663377,0.03673 0.117599,-0.0306 0.187898,-0.01359 0.156236,0.03783 -0.03409,0.05531 1.553971,0.09291 3.89278,0.09219 l 3.950343,-0.0012 2.07098,-0.538844 v -3e-6 z"
       id="path17712" />
    <path
       style="fill:#ffffff;fill-opacity:1"
       d="m 16.922179,49.814223 c -0.223164,-0.198215 -0.335539,-0.408042 -0.374945,-0.700128 -0.05617,-0.416318 -0.05467,-0.418448 0.808899,-1.147766 2.273906,-1.920409 5.269207,-5.764752 8.082899,-10.374055 0.656546,-1.075529 1.59197,-2.582766 2.078724,-3.349408 0.978264,-1.540783 1.100405,-1.781985 1.769758,-3.494883 0.673589,-1.723732 0.661786,-1.647161 0.253484,-1.644548 -0.444068,0.0029 -3.355155,0.836074 -5.71341,1.635336 -1.01708,0.344707 -1.991218,0.626743 -2.164753,0.626743 -0.504403,0 -0.972465,-0.426542 -1.095075,-0.997929 -0.06259,-0.29165 -0.06718,-0.554892 -0.01154,-0.658292 0.05513,-0.102385 0.419565,-0.257938 0.898118,-0.383345 0.442938,-0.116068 2.622624,-0.682288 4.843748,-1.258251 2.221124,-0.575956 4.141421,-1.111528 4.267329,-1.190156 0.133396,-0.08331 0.274976,-0.325591 0.339298,-0.580648 0.06071,-0.240728 0.24973,-0.886488 0.420051,-1.435019 0.362948,-1.168906 1.157388,-4.869873 1.113169,-5.185787 l -0.03044,-0.217597 -1.087266,0.183368 c -1.728284,0.291484 -6.262439,1.312428 -7.345899,1.654047 -0.544381,0.17166 -1.525653,0.546388 -2.180599,0.832757 -1.818244,0.795006 -2.70537,0.972334 -3.186974,0.637045 -0.267264,-0.186065 -0.293996,-0.517861 -0.0823,-1.021447 0.168707,-0.401316 0.722501,-0.715053 2.552678,-1.44613 1.487277,-0.594108 2.093564,-0.747144 6.049365,-1.526995 4.102065,-0.808679 4.829,-0.93659 9.164076,-1.612497 1.850938,-0.288589 4.320579,-0.703475 5.488093,-0.921965 2.94899,-0.551878 3.577283,-0.638587 4.349054,-0.600201 l 0.673067,0.03347 0.129539,0.514607 c 0.07125,0.283034 0.13716,0.689184 0.14649,0.902553 0.03027,0.692654 -0.115774,0.730863 -3.434261,0.898395 -1.110563,0.05608 -2.788056,0.216698 -3.727761,0.356957 -2.395414,0.357534 -5.087251,0.850389 -5.1872,0.949732 -0.04629,0.04599 -0.157345,0.656864 -0.402759,1.678566 -0.155797,0.648579 -0.37472,1.364829 -0.534987,2.148144 -0.09423,0.460567 -0.341057,1.037176 -0.413544,1.325128 -0.124251,0.506671 -0.07476,0.259131 -0.192427,0.708344 -0.147875,0.564586 -0.308587,1.055182 -0.309238,1.103583 -0.0021,0.163501 0.764187,0.0025 4.366791,-0.916845 l 3.591354,-0.916576 0.395278,0.317325 c 0.217391,0.174531 0.439147,0.439671 0.492764,0.589209 0.08265,0.23049 0.05252,0.318533 -0.197922,0.578363 -0.372586,0.386541 -0.873384,0.547424 -2.73686,0.879217 -2.134697,0.380087 -4.70957,1.100687 -6.024683,1.686059 l -0.474525,0.211216 -0.176721,0.983424 -0.176722,0.983425 0.30329,0.87457 c 0.502817,1.44994 1.953125,3.889358 3.268614,5.497813 0.993555,1.214829 2.439783,2.601267 2.994472,2.870671 0.303994,0.147645 1.076701,0.340456 1.96743,0.490927 1.605785,0.271264 1.763494,0.356784 1.889551,1.024662 0.09194,0.487085 -0.11245,0.920992 -0.525603,1.115858 -0.470913,0.222108 -1.925977,0.215975 -2.595995,-0.01096 -1.084385,-0.367248 -2.450468,-1.375004 -4.083591,-3.012461 -1.677853,-1.682296 -2.975308,-3.584351 -3.90026,-5.717726 -0.196329,-0.452855 -0.418704,-0.885693 -0.49414,-0.96186 -0.179124,-0.180847 -0.268048,-0.05579 -1.269318,1.785232 -2.665118,4.900294 -6.5007,10.300691 -9.866379,13.891597 -1.555845,1.659962 -2.043475,1.897534 -2.69927,1.315079 z"
       id="path17714" />
  </g>
</svg>
